<?xml version="1.0" encoding="utf-8"?>
<!-- Generator: Adobe Illustrator 21.0.2, SVG Export Plug-In . SVG Version: 6.00 Build 0)  -->
<svg version="1.1" id="Capa_1" xmlns="http://www.w3.org/2000/svg" xmlns:xlink="http://www.w3.org/1999/xlink" x="0px" y="0px"
	 viewBox="0 0 512 512" style="enable-background:new 0 0 512 512;" xml:space="preserve">
<g>
	<g>
		<path d="M80.4,332.7c-16.5,0-30,13.4-30,30s13.4,30,30,30s30-13.4,30-30C110.4,346.1,97,332.7,80.4,332.7z M80.4,376.5
			c-7.6,0-13.9-6.2-13.9-13.9s6.2-13.9,13.9-13.9s13.9,6.2,13.9,13.9C94.3,370.3,88.1,376.5,80.4,376.5z"/>
	</g>
</g>
<g>
	<g>
		<path d="M432,332.7c-16.5,0-30,13.4-30,30s13.4,30,30,30s30-13.4,30-30S448.6,332.7,432,332.7z M432,376.5
			c-7.6,0-13.9-6.2-13.9-13.9s6.2-13.9,13.9-13.9s13.9,6.2,13.9,13.9C445.9,370.3,439.7,376.5,432,376.5z"/>
	</g>
</g>
<g>
	<g>
		<path d="M432,422.1H72c-4.4,0-8.1,3.6-8.1,8.1s3.6,8.1,8.1,8.1h360c4.5,0,8.1-3.6,8.1-8.1S436.5,422.1,432,422.1z"/>
	</g>
</g>
<g>
	<g>
		<path d="M488.1,234.1v-6.3c0-8.3-6.8-15.1-15.1-15.1h-22.7c-11.7,0-22.3,7.7-25.8,18.9l-9.8-57.4c0,0,0,0,0,0l-2.1-12.4
			c-3.5-20.6-21.2-35.5-42.1-35.5h-29.4c-4.5,0-8.1,3.6-8.1,8.1s3.6,8.1,8.1,8.1h29.4c11.7,0,21.7,7.5,25.2,18.3
			c-4.6-1.4-9.5-2.2-14.5-2.2H131.1c-5,0-9.9,0.7-14.5,2.2c3.5-10.8,13.6-18.3,25.2-18.3h159.6c4.5,0,8.1-3.6,8.1-8.1
			s-3.6-8.1-8.1-8.1h-36.6v-15.6c9.1-3.5,15.6-12.3,15.6-22.6c0-13.3-10.8-24.2-24.2-24.2s-24.2,10.8-24.2,24.2
			c0,10.7,7,19.8,16.7,23v15.2H141.8c-20.8,0-38.5,14.9-42.1,35.4l-12.2,70.3c-3.5-11.3-14.1-19.2-25.9-19.2H39
			c-8.3,0-15.1,6.8-15.1,15.1v6.3c0,14.2,9.6,26.6,23.3,30.3l18.9,5c-8,5.1-15.3,11.5-21.6,19.1c-2.8,3.4-2.3,8.5,1.1,11.3
			c3.4,2.8,8.5,2.3,11.3-1.1c5.9-7.1,12.9-13,20.6-17.4l59.6,91.4c6.9,10.6,18.6,16.9,31.2,16.9h172.3c12.2,0,23.7-6,30.6-16
			l10.4-15c2.5-3.7,1.6-8.7-2-11.2c-3.7-2.5-8.7-1.6-11.2,2l-10.4,15c-4,5.7-10.4,9.1-17.4,9.1H168.5c-7.2,0-13.8-3.6-17.7-9.6
			l-58.1-89.1c7.2-2.2,14.7-3.4,22.2-3.4H395c8.6,0,16.9,1.4,24.8,4.2L389.6,319c-2.5,3.7-1.6,8.7,2,11.2c3.7,2.5,8.7,1.6,11.2-2
			l32.3-46.5c22,13,36.9,37,36.9,64.5V432c0,14.5-11.8,26.3-26.3,26.3H66.3c-6.4,0-12.3-2.3-16.9-6.1c-0.3-0.3-0.6-0.5-0.9-0.7
			c-5.3-4.8-8.6-11.7-8.6-19.4v-85.8c0-7.9,1.2-15.7,3.7-23.2c1.4-4.2-0.9-8.8-5.2-10.2c-4.2-1.4-8.8,0.9-10.2,5.2
			c-3,9.1-4.4,18.5-4.4,28.2V432c0,11.3,4.5,21.6,11.8,29.3V495c0,9.4,7.6,17,17,17h57.4c9.4,0,17-7.6,17-17v-20.6h259.2V495
			c0,9.4,7.6,17,17,17h57.4c9.4,0,17-7.6,17-17v-35.3c6.4-7.4,10.3-17.1,10.3-27.7v-85.8c0-32.3-16.9-60.7-42.3-76.8l19-5h0
			C478.5,260.7,488.1,248.3,488.1,234.1z M248.2,88.1c0-4.4,3.6-8.1,8.1-8.1s8.1,3.6,8.1,8.1s-3.6,8.1-8.1,8.1
			C251.8,96.2,248.2,92.6,248.2,88.1z M51.3,248.8C44.7,247,40,241,40,234.1v-5.2h21.6c4.8,0,9.2,3.2,10.6,7.9l5.6,19L51.3,248.8z
			 M395,255.2H114.9l0,0h-2.1c-4.4,0-8.7,0.3-13,0.9l13.2-76c5.2-3.6,11.6-5.5,18.2-5.5h250.2c6.6,0,12.9,1.9,18.1,5.4l13,76.4
			C406.6,255.5,400.8,255.2,395,255.2z M111,495c0,0.5-0.4,0.9-0.9,0.9H52.7c-0.5,0-0.9-0.4-0.9-0.9v-23.2c4.5,1.7,9.4,2.6,14.5,2.6
			H111V495z M461.6,495c0,0.5-0.4,0.9-0.9,0.9h-57.4c-0.5,0-0.9-0.4-0.9-0.9v-20.6h43.2c5.6,0,11-1.1,16-3.1V495z M460.7,248.8
			L460.7,248.8l-26.5,7l5.6-19c1.4-4.6,5.7-7.9,10.6-7.9H472v5.2l0,0C472,241,467.3,247,460.7,248.8z"/>
	</g>
</g>
<g>
	<g>
		<path d="M295.5,48.3c-10.5-10.4-24.4-16.1-39.2-16.1c-14.9,0-29,5.8-39.5,16.4c-3.1,3.1-3.1,8.3,0,11.4c1.6,1.6,3.6,2.4,5.7,2.4
			s4.1-0.8,5.7-2.4c7.5-7.5,17.5-11.6,28.1-11.6c10.5,0,20.4,4.1,27.9,11.4c3.2,3.1,8.3,3.1,11.4-0.1
			C298.7,56.5,298.6,51.4,295.5,48.3z"/>
	</g>
</g>
<g>
	<g>
		<path d="M318.3,25.5C301.7,9.1,279.6,0,256.3,0c-23.5,0-45.7,9.2-62.3,25.8c-3.1,3.1-3.1,8.3,0,11.4c1.6,1.6,3.6,2.4,5.7,2.4
			s4.1-0.8,5.7-2.4C219,23.6,237,16.1,256.3,16.1c19.1,0,37.1,7.4,50.7,20.8c3.2,3.1,8.3,3.1,11.4-0.1
			C321.5,33.8,321.4,28.6,318.3,25.5z"/>
	</g>
</g>
</svg>
