<?xml version="1.0" encoding="utf-8"?>
<!-- Generator: Adobe Illustrator 21.0.2, SVG Export Plug-In . SVG Version: 6.00 Build 0)  -->
<svg version="1.1" id="Layer_1" xmlns="http://www.w3.org/2000/svg" xmlns:xlink="http://www.w3.org/1999/xlink" x="0px" y="0px"
	 viewBox="0 0 512 512" style="enable-background:new 0 0 512 512;" xml:space="preserve">
<g>
	<g>
		<path d="M144.3,179.4h-10.9l0,0c-10.9,0-20.1,7.1-23.3,16.9c-19.2,3.3-33.9,20.1-33.9,40.2v65.7c0,20.1,14.7,36.9,33.9,40.2
			c3.2,9.8,12.4,16.9,23.3,16.9h10.9c28.6,0,51.9-23.3,51.9-51.9v-76.3C196.2,202.7,173,179.4,144.3,179.4z M179.9,307.6
			c0,19.6-16,35.6-35.6,35.6h-10.9c-4.5,0-8.2-3.7-8.2-8.2v-49.2c0-4.5-3.7-8.2-8.2-8.2s-8.2,3.7-8.2,8.2v39.6
			c-9.5-3.4-16.3-12.5-16.3-23.1v-65.7c0-10.7,6.8-19.7,16.3-23.1v39.6c0,4.5,3.7,8.2,8.2,8.2s8.2-3.7,8.2-8.2v-49.2
			c0-4.5,3.7-8.2,8.2-8.2h10.9c19.6,0,35.6,16,35.6,35.6V307.6z"/>
	</g>
</g>
<g>
	<g>
		<path d="M432.1,176.5c-17-83.4-91-143.9-176.1-143.9c-85,0-159,60.4-176.1,143.6c-0.9,4.4,1.9,8.7,6.4,9.6
			c4.4,0.9,8.7-1.9,9.6-6.4C111.4,103.9,178.8,49,256,49c77.4,0,144.7,55,160.1,130.8c0.8,3.9,4.2,6.5,8,6.5c0.5,0,1.1-0.1,1.6-0.2
			C430.2,185.3,433,181,432.1,176.5z"/>
	</g>
</g>
<g>
	<g>
		<path d="M256,0C138.9,0,43.6,95.3,43.6,212.4v166.1c0,58.6,47.6,106.2,106.2,106.2H178c3.7,15.6,17.7,27.2,34.4,27.2h87.1
			c19.5,0,35.4-15.9,35.4-35.4s-15.9-35.4-35.4-35.4h-87.1c-16.7,0-30.7,11.6-34.4,27.2h-28.2c-49.6,0-89.9-40.3-89.9-89.9V212.4
			c0-108.1,88-196.1,196.1-196.1s196.1,88,196.1,196.1v57.2c0,10.7-6.8,19.7-16.3,23.1v-56.1c0-20.1-14.7-36.9-33.9-40.2
			c-3.2-9.8-12.4-16.9-23.3-16.9h-10.9c-28.6,0-51.9,23.3-51.9,51.9v76.3c0,28.6,23.3,51.9,51.9,51.9h10.9
			c10.9,0,20.1-7.1,23.3-16.9c16.8-2.9,30.1-16.1,33.2-32.8c19-3.5,33.4-20.2,33.4-40.2v-57.2C468.4,95.3,373.1,0,256,0z
			 M212.4,457.5h2.7v13.6c0,4.5,3.7,8.2,8.2,8.2s8.2-3.7,8.2-8.2v-13.6h68.1c10.5,0,19.1,8.6,19.1,19.1s-8.6,19.1-19.1,19.1h-87.1
			c-10.5,0-19.1-8.6-19.1-19.1S201.9,457.5,212.4,457.5z M419.4,302.3c0,10.7-6.8,19.7-16.3,23.1v-39.6c0-4.5-3.7-8.2-8.2-8.2
			s-8.2,3.7-8.2,8.2V335c0,4.5-3.7,8.2-8.2,8.2h-10.9c-19.6,0-35.6-16-35.6-35.6v-76.3c0-19.6,16-35.6,35.6-35.6h10.9
			c4.5,0,8.2,3.7,8.2,8.2v49.2c0,4.5,3.7,8.2,8.2,8.2s8.2-3.7,8.2-8.2v-39.6c9.5,3.4,16.3,12.5,16.3,23.1L419.4,302.3L419.4,302.3z"
			/>
	</g>
</g>
</svg>
