<?xml version="1.0" encoding="utf-8"?>
<!-- Generator: Adobe Illustrator 21.0.2, SVG Export Plug-In . SVG Version: 6.00 Build 0)  -->
<svg version="1.1" id="Слой_1" xmlns="http://www.w3.org/2000/svg" xmlns:xlink="http://www.w3.org/1999/xlink" x="0px" y="0px"
	 viewBox="0 0 324 324" style="enable-background:new 0 0 324 324;" xml:space="preserve">
<style type="text/css">
	.st1{fill:url(#XMLID_30_);}
	.st2{mask:url(#XMLID_29_);}
	.st3{fill:none;}
	.st4{fill:#E5E5E5;}
</style>
	<g opacity="0.2">
		<mask maskUnits="userSpaceOnUse" x="0" y="0" width="324" height="324" id="XMLID_29_">
			<g id="XMLID_33_">
				<radialGradient id="XMLID_30_" cx="161.676" cy="160.38" r="156.492" gradientUnits="userSpaceOnUse">
					<stop  offset="0" style="stop-color:#FFFFFF"/>
					<stop  offset="8.523582e-02" style="stop-color:#F5F5F5"/>
					<stop  offset="0.2308" style="stop-color:#DADADA"/>
					<stop  offset="0.4192" style="stop-color:#ADADAD"/>
					<stop  offset="0.6429" style="stop-color:#707070"/>
					<stop  offset="0.8937" style="stop-color:#232323"/>
					<stop  offset="1" style="stop-color:#000000"/>
				</radialGradient>
				<circle id="XMLID_34_" class="st1" cx="161.7" cy="160.4" r="156.5"/>
			</g>
		</mask>
		<g id="XMLID_3_" class="st2">
			<polygon id="XMLID_4_" class="st3" points="255.6,48.6 191.3,11.5 127,48.6 191.3,85.7 	"/>
			<polygon id="XMLID_5_" class="st3" points="256.2,123.2 320.5,86.1 256.2,49 191.9,86.1 	"/>
			<polygon id="XMLID_6_" class="st3" points="191.9,161.1 256.2,198.2 320.5,161.1 256.2,123.9 	"/>
			<polygon id="XMLID_7_" class="st3" points="190.6,86.1 126.3,49 62,86.1 126.3,123.2 	"/>
			<polygon id="XMLID_8_" class="st3" points="126.3,198.9 62,236.1 126.3,273.2 190.6,236.1 	"/>
			<polygon id="XMLID_9_" class="st3" points="190.6,161.1 126.3,123.9 62,161.1 126.3,198.2 	"/>
			<polygon id="XMLID_10_" class="st3" points="191.3,235.7 255.6,198.6 191.3,161.4 127,198.6 	"/>
			<polygon id="XMLID_11_" class="st3" points="127,273.5 191.3,310.7 255.6,273.5 191.3,236.4 	"/>
			<polygon id="XMLID_12_" class="st3" points="256.2,198.9 191.9,236.1 256.2,273.2 320.5,236.1 	"/>
			<polygon id="XMLID_13_" class="st3" points="191.3,86.5 127,123.6 191.3,160.7 255.6,123.6 	"/>
			<path id="XMLID_16_" class="st4" d="M324,309.8V309l-2.8,1.6l-64.3-37.1l64.3-37.1l2.8,1.6v-0.7l-2.2-1.3l2.2-1.3V234l-2.8,1.6
				l-64.3-37.1l64.3-37.1l2.8,1.6v-0.7l-2.2-1.3l2.2-1.3v-0.7l-2.8,1.6l-64.3-37.1l64.3-37.1l2.8,1.6v-0.7l-2.2-1.3l2.2-1.3v-0.7
				l-2.8,1.6l-64.3-37.1l64.3-37.1l2.8,1.6v-0.7l-2.2-1.3l2.2-1.3V9.1l-2.8,1.6L302.6,0h-1.3l19.2,11.1l-64.3,37.1l-64.3-37.1L211.1,0
				h-1.3l-18.6,10.7L172.7,0h-1.3l19.2,11.1l-64.3,37.1L62,11.1L81.2,0H80L61.4,10.7L42.8,0h-1.3l19.2,11.1L0,46.2v0.7l61.4-35.4
				l64.3,37.1L61.4,85.7L0,50.3V51l60.7,35.1L0,121.1v0.7l61.4-35.4l64.3,37.1l-64.3,37.1L0,125.2v0.7l60.7,35.1L0,196.1v0.7
				l61.4-35.4l64.3,37.1l-64.3,37.1L0,200.2v0.7l60.7,35.1L0,271.1v0.7l61.4-35.4l64.3,37.1l-64.3,37.1L0,275.2v0.7L60.7,311l-22.4,13
				h1.3l21.8-12.6L83.2,324h1.3L62,311l64.3-37.1l64.3,37.1l-22.4,13h1.3l21.8-12.6l21.8,12.6h1.3l-22.4-13l64.3-37.1l64.3,37.1
				l-22.4,13h1.3l21.8-12.6l2.8,1.6v-0.7l-2.2-1.3L324,309.8z M320.5,161.1l-64.3,37.1l-64.3-37.1l64.3-37.1L320.5,161.1z
				M255.6,198.6l-64.3,37.1L127,198.6l64.3-37.1L255.6,198.6z M127,123.6l64.3-37.1l64.3,37.1l-64.3,37.1L127,123.6z M256.2,49
				l64.3,37.1l-64.3,37.1l-64.3-37.1L256.2,49z M191.3,11.5l64.3,37.1l-64.3,37.1L127,48.6L191.3,11.5z M62,86.1L126.3,49l64.3,37.1
				l-64.3,37.1L62,86.1z M62,161.1l64.3-37.1l64.3,37.1l-64.3,37.1L62,161.1z M62,236.1l64.3-37.1l64.3,37.1l-64.3,37.1L62,236.1z
				M191.3,310.7L127,273.5l64.3-37.1l64.3,37.1L191.3,310.7z M256.2,273.2l-64.3-37.1l64.3-37.1l64.3,37.1L256.2,273.2z"/>
		</g>
		<ellipse id="XMLID_1_" class="st4" cx="256.2" cy="123.5" rx="2.6" ry="1.4"/>
		<ellipse id="XMLID_26_" class="st4" cx="126.4" cy="273.7" rx="2.6" ry="1.4"/>
		<ellipse id="XMLID_27_" class="st4" cx="61.2" cy="161" rx="2.6" ry="1.4"/>
		<ellipse id="XMLID_28_" class="st4" cx="256.1" cy="48.4" rx="2.6" ry="1.4"/>
	</g>
</svg>
