<?xml version="1.0" encoding="iso-8859-1"?>
<!-- Generator: Adobe Illustrator 19.0.0, SVG Export Plug-In . SVG Version: 6.00 Build 0)  -->
<svg version="1.1" id="Capa_1" xmlns="http://www.w3.org/2000/svg" xmlns:xlink="http://www.w3.org/1999/xlink" x="0px" y="0px"
	 viewBox="0 0 512.003 512.003" style="enable-background:new 0 0 512.003 512.003;" xml:space="preserve">
<g>
	<path style="fill:#FFFFFF;" d="M230.401,307.203c-122.533,0-221.867-51.779-221.867-110.933v72.092
		c0,59.154,99.333,107.108,221.867,107.108V307.203z"/>
	<path style="fill:#D4E1F4;" d="M452.269,251.75c-13.194,6.112-26.666,16.918-42.668,21.32
		c-48.109,22.412-100.527,34.06-153.6,34.133c-122.533,0-221.867-21.471-221.867-80.625v72.092c0,59.154,99.333,76.8,221.867,76.8
		c85.132,0,150.531-42.831,187.733-76.8L452.269,251.75z"/>
	<path style="fill:#FFFFFF;" d="M68.261,224.287c-10.536-11.207-16.604-25.884-17.059-41.259v-48.233
		C24.395,151.598,8.535,172.66,8.535,196.27c1.112,19.952,10.537,38.525,25.983,51.204L68.261,224.287z"/>
	<path style="fill:#D4E1F4;" d="M292.067,290.136c-88.439-10.493-156.954-2.844-230.4-68.267
		c-0.586-0.522-17.067-56.108-17.067-76.8c-21.6,18.133-25.253,60.791-8.533,93.867c16.356,32.356,90.8,68.267,213.333,68.267
		L292.067,290.136z"/>
	<path style="fill:#A4C2F7;" d="M273.068,290.136c122.533,0,221.867-47.954,221.867-107.108v-72.092
		c0,59.154-99.333,110.933-221.867,110.933V290.136z"/>
	<path style="fill:#D4E1F4;" d="M51.201,204.803c29.867,43.378,135.198,85.333,221.867,85.333
		c122.533,0,196.267-30.888,196.267-90.042v-72.092c0,59.154-73.733,93.867-196.267,93.867c-85.124,0-176.128-38.205-213.333-68.267
		L51.201,204.803z"/>
	<path style="fill:#A4C2F7;" d="M273.068,8.536c122.534,0,221.867,43.246,221.867,102.4S395.602,221.87,273.068,221.87V8.536z"/>
	<path style="fill:#FFFFFF;" d="M273.068,221.87c-122.534,0-221.867-51.779-221.867-110.933s99.333-102.4,221.867-102.4V221.87z"/>
	<path style="fill:#D4E1F4;" d="M469.335,110.936c0,19.251-1.067,40.533-17.067,59.733c-30.448,36.538-106.081,51.2-179.2,51.2
		c-67.35,0-155.972-3.042-179.2-42.667c-13.193-20.194-19.205-44.24-17.067-68.267c0-59.154,87.872-102.4,196.267-102.4
		S469.335,51.782,469.335,110.936z"/>
	<path style="fill:#A4C2F7;" d="M469.334,453.47c21.622-16.53,34.135-36.114,34.135-57.109V324.27
		c0,23.62-15.837,46.064-42.665,64.505L469.334,453.47z"/>
	<path style="fill:#D4E1F4;" d="M59.735,401.07c0,36.105,52.032,73.362,93.867,85.333c32.987,11.184,67.569,16.948,102.4,17.067
		c122.533,0,221.867-22.354,221.867-81.508V375.47c0,18.056-9.255,7.44-25.599,19.545c-37.203,27.552-111.136,40.189-196.267,40.189
		c-31.819-2.235-63.297-7.959-93.867-17.067c-48.711-14.933-81.087-44.228-102.4-59.733"/>
	<path style="fill:#A4C2F7;" d="M409.599,414.306c56.792-20.509,93.869-53.896,93.869-90.036c0-26.014-19.253-48.934-51.2-66.469
		v10.561c0,28.266-22.682,53.976-59.737,73.117L409.599,414.306z"/>
	<g>
		<path style="fill:#D4E1F4;" d="M220.62,375.47c-63.721,0-120.742-14.631-159.079-37.672
			c12.928,53.298,100.782,97.406,207.313,97.406c73.246,0,164.523-3.143,191.948-42.667c18.133-26.133,17.067-46.647,17.067-68.267
			c-0.823-19.675-10.167-38.019-25.598-50.253l-34.135,50.253l-76.8,34.133L220.62,375.47z"/>
		<path style="fill:#D4E1F4;" d="M446.44,292.709c-22.845,47.418-110.863,82.76-216.038,82.76
			c-36.498,0.202-72.865-4.37-108.178-13.6c30.956,21.02,86.057,38.906,159.378,38.906c116.754,0,187.733-45.314,187.733-76.506
			C469.335,313.865,461.322,302.824,446.44,292.709z"/>
	</g>
	
		<linearGradient id="SVGID_1_" gradientUnits="userSpaceOnUse" x1="-48.6335" y1="652.2554" x2="-48.1026" y2="650.8786" gradientTransform="matrix(375.4667 0 0 -144.7724 18433.6582 94440.5)">
		<stop  offset="0" style="stop-color:#D3DFF2"/>
		<stop  offset="0.1717" style="stop-color:#D3DFF2"/>
		<stop  offset="0.2" style="stop-color:#D3DFF2"/>
		<stop  offset="0.2002" style="stop-color:#DAE2F2"/>
		<stop  offset="0.2007" style="stop-color:#EBEAF2"/>
		<stop  offset="0.2014" style="stop-color:#F6EFF2"/>
		<stop  offset="0.2023" style="stop-color:#FDF2F2"/>
		<stop  offset="0.205" style="stop-color:#FFF3F2"/>
		<stop  offset="0.2522" style="stop-color:#FFF3F2"/>
		<stop  offset="0.26" style="stop-color:#FFF3F2"/>
		<stop  offset="0.26" style="stop-color:#D3DFF2"/>
		<stop  offset="0.3974" style="stop-color:#D3DFF2"/>
		<stop  offset="0.42" style="stop-color:#D3DFF2"/>
		<stop  offset="0.4202" style="stop-color:#DAE2F2"/>
		<stop  offset="0.4207" style="stop-color:#EBEAF2"/>
		<stop  offset="0.4214" style="stop-color:#F6EFF2"/>
		<stop  offset="0.4223" style="stop-color:#FDF2F2"/>
		<stop  offset="0.425" style="stop-color:#FFF3F2"/>
		<stop  offset="0.4894" style="stop-color:#FFF3F2"/>
		<stop  offset="0.5" style="stop-color:#FFF3F2"/>
		<stop  offset="0.5" style="stop-color:#F8F0F2"/>
		<stop  offset="0.5001" style="stop-color:#E7E8F2"/>
		<stop  offset="0.5003" style="stop-color:#DCE3F2"/>
		<stop  offset="0.5005" style="stop-color:#D5E0F2"/>
		<stop  offset="0.501" style="stop-color:#D3DFF2"/>
		<stop  offset="0.7062" style="stop-color:#D3DFF2"/>
		<stop  offset="0.74" style="stop-color:#D3DFF2"/>
		<stop  offset="0.741" style="stop-color:#FFF3F2"/>
		<stop  offset="0.8346" style="stop-color:#FFF3F2"/>
		<stop  offset="0.85" style="stop-color:#FFF3F2"/>
		<stop  offset="0.851" style="stop-color:#D3DFF2"/>
	</linearGradient>
	<path style="fill:url(#SVGID_1_);" d="M273.068,187.442c-116.753,0-187.733-45.313-187.733-76.506s70.98-68.267,187.733-68.267
		s187.733,37.074,187.733,68.267S389.821,187.442,273.068,187.442z"/>
	<path style="fill:#7FACFA;" d="M270.963,187.736c3.59,0,7.136-0.046,10.638-0.138c21.21-0.485,42.336-2.845,63.131-7.053
		l-36.82-13.765c-2.619-0.767-4.606-2.911-5.171-5.581l-1.028-8.916c18.662-6.087,27.216-17.159,29.215-29.744
		c6.999-1.483,11.103-5.8,9.589-10.724l-1.617-5.258c-2.228-4.552-6.481-7.778-11.465-8.697
		c-6.716-14.357-22.527-20.716-45.833-22.099c-3.389-0.201-6.935-0.3-10.638-0.297c-1.38,0-2.734,0.028-4.063,0.083L270.963,187.736
		z"/>
	<path style="fill:#A4C2F7;" d="M297.364,122.538c4.831-1.099,7.878-5.881,6.833-10.724l-1.152-5.258
		c-1.15-4.053-4.196-7.296-8.17-8.697c-5.482-16.444-19.467-22.396-40.242-22.396c-0.984,0-1.949,0.028-2.895,0.083
		c-6.742,0.596-13.524-0.571-19.679-3.387c-1.942-0.919-3.727-2.137-5.29-3.611c-0.547-0.566-1.872-0.205-1.872,0.513
		c0.001,1.458,0.088,2.915,0.261,4.364c0.756,6.371-0.147,5.414-4.63,11.769c-2.698,3.886-4.782,8.164-6.18,12.683
		c-3.954,1.407-6.982,4.642-8.127,8.68l-1.152,5.258c-1.045,4.843,2.002,9.625,6.833,10.724c0.887,13.009,8.9,24.458,20.819,29.744
		l-0.728,8.853c-0.212,2.394-1.633,4.515-3.767,5.621l-26.822,13.587c17.299,4.991,35.224,7.481,53.228,7.392
		c17.774,0.086,35.471-2.335,52.568-7.192l-26.238-13.765c-2.09-1.12-3.476-3.218-3.685-5.581l-0.733-8.916
		C288.464,146.996,296.478,135.547,297.364,122.538z"/>
	<g>
		<path style="fill:#428DFF;" d="M270.964,196.27c-25.675,0.108-51.292-2.431-76.446-7.575l-29.438-6.162l65.796-23.75l0.1-0.875
			c-13.067-4.817-23.138-15.455-27.233-28.767c-3.759-1.539-6.935-4.227-9.075-7.679c-2.177-3.665-2.692-8.083-1.417-12.15
			l1.617-5.263c2.333-6.127,7.255-10.909,13.446-13.067c2.327-4.328,5.264-8.299,8.721-11.792c1.533-1.546,2.792-2.7,3.808-3.629
			l0.404-0.363l-0.063-0.375c-0.321-1.904-0.482-3.832-0.483-5.763v-5.254l5.142-2.917c3.562-1.788,7.817-1.483,11.088,0.796
			c1.647,1.042,3.421,1.867,5.279,2.454c7.864,2.46,16.116,3.436,24.337,2.879c1.45-0.058,2.921-0.092,4.417-0.092
			c21.025,0,49.85,2.571,62.442,23.967c6.282,2.136,11.285,6.959,13.65,13.158l1.617,5.254c1.278,4.066,0.767,8.484-1.408,12.15
			c-2.141,3.456-5.32,6.145-9.083,7.683c-4.093,13.312-14.165,23.951-27.233,28.767l0.104,0.892l64.404,24.121l-29,5.983
			C321.606,193.904,296.312,196.372,270.964,196.27L270.964,196.27z M230.448,177.078c26.84,2.812,53.899,2.825,80.742,0.037
			l-6.267-2.346c-5.633-1.861-9.75-6.72-10.658-12.583l-1.83-15.854l6.629-2.163c13.846-4.517,21.729-12.246,23.433-22.971
			l0.921-5.8l5.746-1.212c0.994-0.187,1.951-0.53,2.837-1.017l-1.263-4.105c-1.562-1.505-3.513-2.544-5.633-3l-3.75-1.062
			l-1.65-3.529c-3.508-7.504-12.383-17.479-48.742-17.479c-1.262,0-2.501,0.025-3.717,0.075c-9.916,0.581-19.857-0.559-29.383-3.371
			c-1.122,2.943-3.026,5.524-5.508,7.462c-0.85,0.779-1.904,1.738-3.187,3.038c-2.91,2.936-5.262,6.376-6.941,10.154l-1.621,3.638
			l-3.829,1.092c-2.161,0.443-4.134,1.538-5.654,3.138l-1.204,3.946c0.888,0.491,1.849,0.835,2.846,1.021l5.746,1.217l0.921,5.796
			c1.7,10.725,9.583,18.454,23.429,22.971l6.629,2.163l-1.817,15.783c-0.916,5.946-5.129,10.857-10.867,12.667L230.448,177.078z
			 M226.806,75.424l0.038,0.029L226.806,75.424z"/>
		<path style="fill:#428DFF;" d="M281.601,512.003c-129.196,0-230.4-50.796-230.4-115.642V324.27h17.067
			c0,54.55,99.688,102.4,213.333,102.4s213.333-47.85,213.333-102.4h17.067v72.092C512.001,461.207,410.797,512.003,281.601,512.003
			z M68.268,369.399v26.962c0,53.434,97.696,98.575,213.333,98.575s213.333-45.141,213.333-98.575v-26.962
			c-34.404,43.571-117.067,74.338-213.333,74.338S102.672,412.97,68.268,369.399z"/>
		<path style="fill:#428DFF;" d="M93.868,461.949c-4.713,0-8.533-3.821-8.533-8.533v-70.988c0-4.713,3.821-8.533,8.533-8.533
			c4.713,0,8.533,3.82,8.533,8.533v70.988C102.401,458.128,98.581,461.949,93.868,461.949z"/>
		<path style="fill:#428DFF;" d="M469.335,461.949c-4.713,0-8.533-3.821-8.533-8.533v-70.988c0-4.713,3.82-8.533,8.533-8.533
			s8.533,3.82,8.533,8.533v70.988C477.868,458.128,474.048,461.949,469.335,461.949z"/>
		<path style="fill:#428DFF;" d="M128.001,482.145c-4.713,0-8.533-3.821-8.533-8.533v-70.104c0-4.713,3.821-8.533,8.533-8.533
			c4.713,0,8.533,3.82,8.533,8.533v70.104C136.535,478.324,132.714,482.145,128.001,482.145L128.001,482.145z"/>
		<path style="fill:#428DFF;" d="M435.201,482.145c-4.713,0-8.533-3.821-8.533-8.533v-70.104c0-4.713,3.821-8.533,8.533-8.533
			s8.533,3.82,8.533,8.533v70.104C443.735,478.324,439.914,482.145,435.201,482.145L435.201,482.145z"/>
		<path style="fill:#428DFF;" d="M162.135,495.128c-4.713,0-8.533-3.821-8.533-8.533v-69.392c0-4.713,3.821-8.533,8.533-8.533
			c4.713,0,8.533,3.82,8.533,8.533v69.392C170.668,491.307,166.848,495.128,162.135,495.128z"/>
		<path style="fill:#428DFF;" d="M401.068,495.128c-4.713,0-8.533-3.821-8.533-8.533v-69.392c0-4.713,3.821-8.533,8.533-8.533
			s8.533,3.82,8.533,8.533v69.392C409.601,491.307,405.781,495.128,401.068,495.128z"/>
		<path style="fill:#428DFF;" d="M204.801,505.407c-4.713,0-8.533-3.82-8.533-8.533v-68.746c0-4.713,3.821-8.533,8.533-8.533
			c4.713,0,8.533,3.821,8.533,8.533v68.746C213.335,501.587,209.514,505.407,204.801,505.407L204.801,505.407z"/>
		<path style="fill:#428DFF;" d="M358.401,505.407c-4.713,0-8.533-3.82-8.533-8.533v-68.746c0-4.713,3.82-8.533,8.533-8.533
			s8.533,3.821,8.533,8.533v68.746C366.935,501.587,363.114,505.407,358.401,505.407L358.401,505.407z"/>
		<path style="fill:#428DFF;" d="M256.001,511.27c-4.713,0-8.533-3.821-8.533-8.533v-68.321c0-4.713,3.821-8.533,8.533-8.533
			s8.533,3.82,8.533,8.533v68.321C264.535,507.449,260.714,511.27,256.001,511.27z"/>
		<path style="fill:#428DFF;" d="M307.201,511.27c-4.713,0-8.533-3.821-8.533-8.533v-68.321c0-4.713,3.821-8.533,8.533-8.533
			c4.713,0,8.533,3.82,8.533,8.533v68.321C315.735,507.449,311.914,511.27,307.201,511.27z"/>
		<path style="fill:#428DFF;" d="M273.068,230.403c-127.042,0-230.4-53.592-230.4-119.467c0-30.446,22.921-58.358,64.538-78.596
			c4.236-2.047,9.331-0.28,11.389,3.951c2.058,4.231,0.304,9.33-3.922,11.399c-35.429,17.225-54.938,39.688-54.938,63.246
			c0,54.55,99.688,102.4,213.333,102.4s213.333-47.85,213.333-102.4c0-52.638-93.708-93.867-213.333-93.867
			c-28.093-0.101-56.137,2.359-83.783,7.35c-4.635,0.856-9.086-2.207-9.942-6.842s2.207-9.086,6.842-9.942
			c28.669-5.18,57.75-7.735,86.883-7.633c131.35,0,230.4,47.692,230.4,110.933C503.468,176.811,400.11,230.403,273.068,230.403z"/>
		<circle style="fill:#428DFF;" cx="145.068" cy="25.603" r="8.533"/>
		<path style="fill:#428DFF;" d="M273.068,195.974c-115.662,0-196.267-44.817-196.267-85.037c0-37.75,73.412-76.8,196.267-76.8
			s196.267,39.05,196.267,76.8C469.335,151.157,388.731,195.974,273.068,195.974z M273.068,51.203
			c-119.317,0-179.2,38.296-179.2,59.733c0,23.071,63.25,67.971,179.2,67.971s179.2-44.9,179.2-67.971
			C452.268,89.499,392.385,51.203,273.068,51.203z"/>
		<path style="fill:#428DFF;" d="M273.068,298.67c-129.196,0-230.4-50.796-230.4-115.642v-72.092h17.067
			c0,54.55,99.688,102.4,213.333,102.4s213.333-47.85,213.333-102.4h17.067v72.092C503.468,247.874,402.264,298.67,273.068,298.67z
			 M59.735,156.065v26.963c0,53.434,97.696,98.575,213.333,98.575s213.333-45.141,213.333-98.575v-26.963
			c-34.404,43.571-117.067,74.338-213.333,74.338S94.139,199.636,59.735,156.065z"/>
		<path style="fill:#428DFF;" d="M85.335,248.615c-4.713,0-8.533-3.821-8.533-8.533v-70.988c0-4.713,3.82-8.533,8.533-8.533
			c4.713,0,8.533,3.821,8.533,8.533v70.988C93.868,244.795,90.048,248.615,85.335,248.615z"/>
		<path style="fill:#428DFF;" d="M460.801,248.615c-4.713,0-8.533-3.821-8.533-8.533v-70.988c0-4.713,3.821-8.533,8.533-8.533
			c4.713,0,8.533,3.821,8.533,8.533v70.988C469.335,244.795,465.514,248.615,460.801,248.615z"/>
		<path style="fill:#428DFF;" d="M119.468,268.811c-4.713,0-8.533-3.821-8.533-8.533v-70.104c0-4.713,3.821-8.533,8.533-8.533
			c4.713,0,8.533,3.82,8.533,8.533v70.104C128.001,264.991,124.181,268.811,119.468,268.811L119.468,268.811z"/>
		<path style="fill:#428DFF;" d="M426.668,268.811c-4.713,0-8.533-3.821-8.533-8.533v-70.104c0-4.713,3.821-8.533,8.533-8.533
			c4.713,0,8.533,3.82,8.533,8.533v70.104C435.201,264.991,431.381,268.811,426.668,268.811L426.668,268.811z"/>
		<path style="fill:#428DFF;" d="M153.601,281.795c-4.713,0-8.533-3.821-8.533-8.533V203.87c0-4.713,3.821-8.533,8.533-8.533
			s8.533,3.82,8.533,8.533v69.392C162.135,277.974,158.314,281.795,153.601,281.795z"/>
		<path style="fill:#428DFF;" d="M392.535,281.795c-4.713,0-8.533-3.821-8.533-8.533V203.87c0-4.713,3.82-8.533,8.533-8.533
			s8.533,3.82,8.533,8.533v69.392C401.068,277.974,397.248,281.795,392.535,281.795z"/>
		<path style="fill:#428DFF;" d="M196.268,292.074c-4.713,0-8.533-3.82-8.533-8.533v-68.746c0-4.713,3.821-8.533,8.533-8.533
			s8.533,3.82,8.533,8.533v68.746C204.801,288.253,200.981,292.074,196.268,292.074z"/>
		<path style="fill:#428DFF;" d="M349.868,292.074c-4.713,0-8.533-3.82-8.533-8.533v-68.746c0-4.713,3.82-8.533,8.533-8.533
			s8.533,3.82,8.533,8.533v68.746C358.401,288.253,354.581,292.074,349.868,292.074z"/>
		<path style="fill:#428DFF;" d="M247.468,297.936c-4.713,0-8.533-3.821-8.533-8.533v-68.321c0-4.713,3.82-8.533,8.533-8.533
			s8.533,3.821,8.533,8.533v68.321C256.001,294.116,252.181,297.936,247.468,297.936z"/>
		<path style="fill:#428DFF;" d="M298.668,297.936c-4.713,0-8.533-3.821-8.533-8.533v-68.321c0-4.713,3.82-8.533,8.533-8.533
			s8.533,3.821,8.533,8.533v68.321C307.201,294.116,303.381,297.936,298.668,297.936z"/>
		<path style="fill:#428DFF;" d="M42.668,333.949c-4.713,0-8.533-3.821-8.533-8.533v-70.988c0-4.713,3.821-8.533,8.533-8.533
			s8.533,3.821,8.533,8.533v70.988C51.201,330.128,47.381,333.949,42.668,333.949z"/>
		<path style="fill:#428DFF;" d="M418.135,333.949c-4.713,0-8.533-3.821-8.533-8.533v-60.883c0-4.713,3.82-8.533,8.533-8.533
			s8.533,3.821,8.533,8.533v60.883C426.668,330.128,422.848,333.949,418.135,333.949z"/>
		<path style="fill:#428DFF;" d="M76.801,354.145c-4.713,0-8.533-3.821-8.533-8.533v-70.104c0-4.713,3.82-8.533,8.533-8.533
			c4.713,0,8.533,3.82,8.533,8.533v70.104C85.335,350.324,81.514,354.145,76.801,354.145L76.801,354.145z"/>
		<path style="fill:#428DFF;" d="M384.001,354.145c-4.713,0-8.533-3.821-8.533-8.533v-70.104c0-4.713,3.82-8.533,8.533-8.533
			s8.533,3.82,8.533,8.533v70.104C392.535,350.324,388.714,354.145,384.001,354.145L384.001,354.145z"/>
		<path style="fill:#428DFF;" d="M110.935,367.128c-4.713,0-8.533-3.82-8.533-8.533v-69.392c0-4.713,3.821-8.533,8.533-8.533
			c4.713,0,8.533,3.82,8.533,8.533v69.392C119.468,363.307,115.648,367.128,110.935,367.128z"/>
		<path style="fill:#428DFF;" d="M349.868,367.128c-4.713,0-8.533-3.82-8.533-8.533v-69.392c0-4.713,3.82-8.533,8.533-8.533
			s8.533,3.82,8.533,8.533v69.392C358.401,363.307,354.581,367.128,349.868,367.128z"/>
		<path style="fill:#428DFF;" d="M153.601,377.407c-4.713,0-8.533-3.82-8.533-8.533v-68.746c0-4.713,3.821-8.533,8.533-8.533
			s8.533,3.82,8.533,8.533v68.746C162.135,373.587,158.314,377.407,153.601,377.407L153.601,377.407z"/>
		<path style="fill:#428DFF;" d="M307.201,377.407c-4.713,0-8.533-3.82-8.533-8.533v-68.746c0-4.713,3.821-8.533,8.533-8.533
			c4.713,0,8.533,3.82,8.533,8.533v68.746C315.735,373.587,311.914,377.407,307.201,377.407L307.201,377.407z"/>
		<path style="fill:#428DFF;" d="M204.801,383.27c-4.713,0-8.533-3.821-8.533-8.533v-68.321c0-4.713,3.821-8.533,8.533-8.533
			c4.713,0,8.533,3.82,8.533,8.533v68.321C213.335,379.449,209.514,383.27,204.801,383.27z"/>
		<path style="fill:#428DFF;" d="M256.001,383.27c-4.713,0-8.533-3.821-8.533-8.533v-68.321c0-4.713,3.821-8.533,8.533-8.533
			s8.533,3.82,8.533,8.533v68.321C264.535,379.449,260.714,383.27,256.001,383.27z"/>
		<path style="fill:#428DFF;" d="M281.601,409.307c-66.542,0-126.379-14.717-164.171-40.379L75.368,340.37l49.079,13.263
			c34.593,9.006,70.209,13.478,105.954,13.304c98.971,0,186.592-32.775,208.35-77.929l4.296-8.917l8.188,5.563
			c17.425,11.838,26.633,25.192,26.633,38.617C477.868,364.49,397.264,409.307,281.601,409.307z M194.406,382.607
			c28.58,6.663,57.851,9.897,87.196,9.633c115.95,0,179.2-44.9,179.2-67.971c-1.172-7.639-5.431-14.462-11.779-18.871
			c-30.679,46.725-118.063,78.604-218.621,78.604C218.318,384.003,206.281,383.532,194.406,382.607z"/>
		<path style="fill:#428DFF;" d="M281.601,443.736c-114.925,0-213.088-44.629-228.325-103.808l-5.008-19.45l17.475,9.896
			c41.042,23.238,101.054,36.563,164.658,36.563c115.638,0,213.333-45.141,213.333-98.575v-24.983l12.642,6.942
			c36.388,19.975,55.625,45.55,55.625,73.95C512.001,390.145,408.643,443.736,281.601,443.736z M79.764,356.274
			c29.35,40.783,110.929,70.396,201.837,70.396c113.646,0,213.333-47.85,213.333-102.4c0-22.271-16.642-39.446-34.295-51.396
			c-4.571,62.675-104.055,111.13-230.238,111.13C178.855,384.746,127.667,375.324,79.764,356.274L79.764,356.274z"/>
		<path style="fill:#428DFF;" d="M230.401,315.736c-127.042,0-230.4-53.592-230.4-119.467c0-25.808,16.137-49.567,46.667-68.704
			l13.067-8.192v63.654c0,53.434,97.696,98.575,213.333,98.575c36.243,0.186,72.352-4.422,107.387-13.705l5.95,15.925
			C337.345,305.683,284.105,316.574,230.401,315.736L230.401,315.736z M42.668,151.336c-14.872,10.351-24.279,26.862-25.6,44.933
			c0,54.55,99.688,102.4,213.333,102.4c6.904,0,13.765-0.167,20.583-0.5c-118.458-5.413-208.317-54.042-208.317-115.142V151.336z"/>
		<path style="fill:#428DFF;" d="M230.401,384.003c-129.196,0-230.4-50.796-230.4-115.642V196.27h17.067
			c0,54.55,99.688,102.4,213.333,102.4c51.152,0.845,101.873-9.474,148.629-30.238l1.425-0.533
			c23.719-6.118,46.354-15.855,67.108-28.867l13.237-8.742v38.071C460.801,333.207,359.597,384.003,230.401,384.003z
			 M17.068,241.399v26.963c0,53.434,97.696,98.575,213.333,98.575s213.333-45.141,213.333-98.575v-7.117
			c-18.395,9.841-37.864,17.528-58.021,22.908c-48.88,21.628-101.868,32.403-155.312,31.583
			C134.135,315.736,51.472,284.97,17.068,241.399z"/>
	</g>
</g>
<g>
</g>
<g>
</g>
<g>
</g>
<g>
</g>
<g>
</g>
<g>
</g>
<g>
</g>
<g>
</g>
<g>
</g>
<g>
</g>
<g>
</g>
<g>
</g>
<g>
</g>
<g>
</g>
<g>
</g>
</svg>
