<?xml version="1.0" encoding="utf-8"?>
<!-- Generator: Adobe Illustrator 21.0.0, SVG Export Plug-In . SVG Version: 6.00 Build 0)  -->
<svg version="1.1" id="Livello_1" xmlns="http://www.w3.org/2000/svg" xmlns:xlink="http://www.w3.org/1999/xlink" x="0px" y="0px"
	 viewBox="0 0 178.4 183.2" style="enable-background:new 0 0 178.4 183.2;" xml:space="preserve">
<style type="text/css">
	.st0{fill:#FFB516;}
	.st1{fill:#FE6309;}
	.st2{fill:#D70000;}
</style>
<g>
	<g>
		<path class="st0" d="M60.3,89.6c0-14.2,6.6-26.8,17-34.9L61.4,29.4c-13.2,9.5-23.2,23.3-27.9,39.3c7.4,4.7,12.2,13,12.2,22.4
			c0,9.1-4.5,17.1-11.4,21.9c5.1,15.2,14.9,28.2,27.7,37.2L76.8,124C66.7,115.9,60.3,103.5,60.3,89.6z"/>
		<circle class="st1" cx="19.2" cy="91.1" r="19.2"/>
		<path class="st2" d="M145.9,137.4c4.5,0,8.7,1.1,12.3,3c11.5-12.1,18.9-28.1,20.1-45.8l-29.8-0.6c-2.3,22.3-21.1,39.7-44.1,39.7
			c-6.4,0-12.4-1.3-17.9-3.8L71.9,156c9.8,4.8,20.9,7.6,32.6,7.6c5.1,0,10-0.5,14.8-1.5C120.4,148.3,131.9,137.4,145.9,137.4z"/>
		<circle class="st0" cx="145.9" cy="164.1" r="19.2"/>
		<path class="st1" d="M160.3,40.9c-4.3,3.1-9.7,4.9-15.4,4.9c-14.7,0-26.6-11.9-26.6-26.6c0-0.8,0-1.5,0.1-2.3
			c-4.5-0.8-9.1-1.3-13.8-1.3c-11.8,0-23,2.8-32.9,7.7l14.7,25.9c5.6-2.5,11.7-3.9,18.2-3.9c22.7,0,41.4,17.1,44,39.1l29.8-0.9
			C177,67.2,170.4,52.5,160.3,40.9z"/>
		<circle class="st2" cx="144.9" cy="19.2" r="19.2"/>
	</g>
</g>
</svg>
